<!--?xml version="1.0" standalone="no"?-->
              <svg id="sw-js-blob-svg" viewBox="0 0 100 100" xmlns="http://www.w3.org/2000/svg" version="1.1">
                    <defs> 
                        <linearGradient id="sw-gradient" x1="0" x2="1" y1="1" y2="0">
                            <stop id="stop1" stop-color="rgba(248, 117, 55, 1)" offset="0%"></stop>
                            <stop id="stop2" stop-color="rgba(251, 168, 31, 1)" offset="100%"></stop>
                        </linearGradient>
                    </defs>
                <path fill="url(#sw-gradient)" d="M25,-28.2C33.1,-22.9,41,-15.8,42.4,-7.5C43.9,0.8,39,10.2,33.2,18.1C27.4,25.9,20.6,32.1,12.5,35.5C4.4,39,-5.2,39.7,-13.1,36.6C-21.1,33.5,-27.5,26.5,-33.2,18.4C-38.8,10.2,-43.7,0.8,-42.6,-7.9C-41.5,-16.6,-34.5,-24.7,-26.4,-30C-18.3,-35.3,-9.2,-37.8,-0.4,-37.4C8.4,-37,16.8,-33.5,25,-28.2Z" width="100%" height="100%" transform="translate(50 50)" stroke-width="0" style="transition: 0.3s;"></path>
              </svg>