<svg xmlns="http://www.w3.org/2000/svg" viewBox="0 0 1872 968" preserveAspectRatio="xMidYMid" width="1872" height="968" xmlns:xlink="http://www.w3.org/1999/xlink" style="shape-rendering:auto;display:block;background-position-x:0%;background-position-y:0%;background-size:auto;background-origin:padding-box;background-clip:border-box;background:scroll rgb(26, 27, 32) none  repeat;width:1872px;height:968px;;animation:none"><g><path stroke-width="2" stroke-opacity="0" stroke="rgb(98, 82, 197)" fill="none" d="M 0 537.5 C 312 537.5 624 682.5 936 682.5 C 1248 682.5 1560 537.5 1872 537.5 C 2184 537.5 2496 682.5 2808 682.5 C 3120 682.5 3432 537.5 3744 537.5" transform="matrix(1,0,0,1,0,0)" style="fill:none;stroke:rgb(98, 82, 197);transform:matrix(1, 0, 0, 1, 0, 0);;animation:none"></path>
<path stroke-width="2" stroke-opacity="0" stroke="rgb(98, 82, 197)" fill="none" d="M 0 537.522 C 312 537.522 624 682.478 936 682.478 C 1248 682.478 1560 537.522 1872 537.522 C 2184 537.522 2496 682.478 2808 682.478 C 3120 682.478 3432 537.522 3744 537.522" transform="matrix(1,0,0,1,-9.983843803405762,0)" style="fill:none;stroke:rgb(98, 82, 197);transform:matrix(1, 0, 0, 1, -9.98384, 0);;animation:none"></path>
<path stroke-width="2" stroke-opacity="0" stroke="rgb(98, 82, 197)" fill="none" d="M 0 537.59 C 312 537.59 624 682.41 936 682.41 C 1248 682.41 1560 537.59 1872 537.59 C 2184 537.59 2496 682.41 2808 682.41 C 3120 682.41 3432 537.59 3744 537.59" transform="matrix(1,0,0,1,-19.967687606811523,0)" style="fill:none;stroke:rgb(98, 82, 197);transform:matrix(1, 0, 0, 1, -19.9677, 0);;animation:none"></path>
<path stroke-width="2" stroke-opacity="0" stroke="rgb(98, 82, 197)" fill="none" d="M 0 537.704 C 312 537.704 624 682.296 936 682.296 C 1248 682.296 1560 537.704 1872 537.704 C 2184 537.704 2496 682.296 2808 682.296 C 3120 682.296 3432 537.704 3744 537.704" transform="matrix(1,0,0,1,-29.952001571655273,0)" style="fill:none;stroke:rgb(98, 82, 197);transform:matrix(1, 0, 0, 1, -29.952, 0);;animation:none"></path>
<path stroke-width="2" stroke-opacity="0" stroke="rgb(97, 83, 197)" fill="none" d="M 0 537.866 C 312 537.866 624 682.134 936 682.134 C 1248 682.134 1560 537.866 1872 537.866 C 2184 537.866 2496 682.134 2808 682.134 C 3120 682.134 3432 537.866 3744 537.866" transform="matrix(1,0,0,1,-39.93584442138672,0)" style="fill:none;stroke:rgb(97, 83, 197);transform:matrix(1, 0, 0, 1, -39.9358, 0);;animation:none"></path>
<path stroke-width="2" stroke-opacity="0" stroke="rgb(97, 83, 197)" fill="none" d="M 0 538.077 C 312 538.077 624 681.923 936 681.923 C 1248 681.923 1560 538.077 1872 538.077 C 2184 538.077 2496 681.923 2808 681.923 C 3120 681.923 3432 538.077 3744 538.077" transform="matrix(1,0,0,1,-49.9196891784668,0)" style="fill:none;stroke:rgb(97, 83, 197);transform:matrix(1, 0, 0, 1, -49.9197, 0);;animation:none"></path>
<path stroke-width="2" stroke-opacity="0" stroke="rgb(97, 84, 198)" fill="none" d="M 0 538.339 C 312 538.339 624 681.661 936 681.661 C 1248 681.661 1560 538.339 1872 538.339 C 2184 538.339 2496 681.661 2808 681.661 C 3120 681.661 3432 538.339 3744 538.339" transform="matrix(1,0,0,1,-59.90400314331055,0)" style="fill:none;stroke:rgb(97, 84, 198);transform:matrix(1, 0, 0, 1, -59.904, 0);;animation:none"></path>
<path stroke-width="2" stroke-opacity="0" stroke="rgb(96, 85, 198)" fill="none" d="M 0 538.654 C 312 538.654 624 681.346 936 681.346 C 1248 681.346 1560 538.654 1872 538.654 C 2184 538.654 2496 681.346 2808 681.346 C 3120 681.346 3432 538.654 3744 538.654" transform="matrix(1,0,0,1,-69.88784790039062,0)" style="fill:none;stroke:rgb(96, 85, 198);transform:matrix(1, 0, 0, 1, -69.8878, 0);;animation:none"></path>
<path stroke-width="2" stroke-opacity="0" stroke="rgb(95, 86, 198)" fill="none" d="M 0 539.022 C 312 539.022 624 680.977 936 680.977 C 1248 680.977 1560 539.022 1872 539.022 C 2184 539.022 2496 680.977 2808 680.977 C 3120 680.977 3432 539.022 3744 539.022" transform="matrix(1,0,0,1,-79.87168884277344,0)" style="fill:none;stroke:rgb(95, 86, 198);transform:matrix(1, 0, 0, 1, -79.8717, 0);;animation:none"></path>
<path stroke-width="2" stroke-opacity="0" stroke="rgb(95, 87, 198)" fill="none" d="M 0 539.447 C 312 539.447 624 680.553 936 680.553 C 1248 680.553 1560 539.447 1872 539.447 C 2184 539.447 2496 680.553 2808 680.553 C 3120 680.553 3432 539.447 3744 539.447" transform="matrix(1,0,0,1,-89.85600280761719,0)" style="fill:none;stroke:rgb(95, 87, 198);transform:matrix(1, 0, 0, 1, -89.856, 0);;animation:none"></path>
<path stroke-width="2" stroke-opacity="0" stroke="rgb(94, 88, 199)" fill="none" d="M 0 539.928 C 312 539.928 624 680.072 936 680.072 C 1248 680.072 1560 539.928 1872 539.928 C 2184 539.928 2496 680.072 2808 680.072 C 3120 680.072 3432 539.928 3744 539.928" transform="matrix(1,0,0,1,-99.83984375,0)" style="fill:none;stroke:rgb(94, 88, 199);transform:matrix(1, 0, 0, 1, -99.8398, 0);;animation:none"></path>
<path stroke-width="2" stroke-opacity="0" stroke="rgb(93, 89, 199)" fill="none" d="M 0 540.468 C 312 540.468 624 679.532 936 679.532 C 1248 679.532 1560 540.468 1872 540.468 C 2184 540.468 2496 679.532 2808 679.532 C 3120 679.532 3432 540.468 3744 540.468" transform="matrix(1,0,0,1,-109.82369232177734,0)" style="fill:none;stroke:rgb(93, 89, 199);transform:matrix(1, 0, 0, 1, -109.824, 0);;animation:none"></path>
<path stroke-width="2" stroke-opacity="0" stroke="rgb(92, 91, 200)" fill="none" d="M 0 541.069 C 312 541.069 624 678.931 936 678.931 C 1248 678.931 1560 541.068 1872 541.068 C 2184 541.068 2496 678.931 2808 678.931 C 3120 678.931 3432 541.068 3744 541.068" transform="matrix(1,0,0,1,-119.8080062866211,0)" style="fill:none;stroke:rgb(92, 91, 200);transform:matrix(1, 0, 0, 1, -119.808, 0);;animation:none"></path>
<path stroke-width="2" stroke-opacity="0" stroke="rgb(91, 92, 200)" fill="none" d="M 0 541.732 C 312 541.732 624 678.268 936 678.268 C 1248 678.268 1560 541.732 1872 541.732 C 2184 541.732 2496 678.268 2808 678.268 C 3120 678.268 3432 541.732 3744 541.732" transform="matrix(1,0,0,1,-129.79183959960938,0)" style="fill:none;stroke:rgb(91, 92, 200);transform:matrix(1, 0, 0, 1, -129.792, 0);;animation:none"></path>
<path stroke-width="2" stroke-opacity="0" stroke="rgb(89, 94, 201)" fill="none" d="M 0 542.459 C 312 542.459 624 677.541 936 677.541 C 1248 677.541 1560 542.459 1872 542.459 C 2184 542.459 2496 677.541 2808 677.541 C 3120 677.541 3432 542.459 3744 542.459" transform="matrix(1,0,0,1,-139.77569580078125,0)" style="fill:none;stroke:rgb(89, 94, 201);transform:matrix(1, 0, 0, 1, -139.776, 0);;animation:none"></path>
<path stroke-width="2" stroke-opacity="0" stroke="rgb(88, 96, 202)" fill="none" d="M 0 543.253 C 312 543.253 624 676.747 936 676.747 C 1248 676.747 1560 543.253 1872 543.253 C 2184 543.253 2496 676.747 2808 676.747 C 3120 676.747 3432 543.253 3744 543.253" transform="matrix(1,0,0,1,-149.75999450683594,0)" style="fill:none;stroke:rgb(88, 96, 202);transform:matrix(1, 0, 0, 1, -149.76, 0);;animation:none"></path>
<path stroke-width="2" stroke-opacity="0" stroke="rgb(86, 99, 202)" fill="none" d="M 0 544.115 C 312 544.115 624 675.885 936 675.885 C 1248 675.885 1560 544.115 1872 544.115 C 2184 544.115 2496 675.885 2808 675.885 C 3120 675.885 3432 544.115 3744 544.115" transform="matrix(1,0,0,1,-159.7438507080078,0)" style="fill:none;stroke:rgb(86, 99, 202);transform:matrix(1, 0, 0, 1, -159.744, 0);;animation:none"></path>
<path stroke-width="2" stroke-opacity="0" stroke="rgb(84, 101, 203)" fill="none" d="M 0 545.047 C 312 545.047 624 674.953 936 674.953 C 1248 674.953 1560 545.047 1872 545.047 C 2184 545.047 2496 674.953 2808 674.953 C 3120 674.953 3432 545.047 3744 545.047" transform="matrix(1,0,0,1,-169.72769165039062,0)" style="fill:none;stroke:rgb(84, 101, 203);transform:matrix(1, 0, 0, 1, -169.728, 0);;animation:none"></path>
<path stroke-width="2" stroke-opacity="0" stroke="rgb(82, 104, 204)" fill="none" d="M 0 546.05 C 312 546.05 624 673.95 936 673.95 C 1248 673.95 1560 546.05 1872 546.05 C 2184 546.05 2496 673.95 2808 673.95 C 3120 673.95 3432 546.05 3744 546.05" transform="matrix(1,0,0,1,-179.71200561523438,0)" style="fill:none;stroke:rgb(82, 104, 204);transform:matrix(1, 0, 0, 1, -179.712, 0);;animation:none"></path>
<path stroke-width="2" stroke-opacity="0" stroke="rgb(80, 107, 205)" fill="none" d="M 0 547.128 C 312 547.128 624 672.872 936 672.872 C 1248 672.872 1560 547.128 1872 547.128 C 2184 547.128 2496 672.872 2808 672.872 C 3120 672.872 3432 547.128 3744 547.128" transform="matrix(1,0,0,1,-189.6958465576172,0)" style="fill:none;stroke:rgb(80, 107, 205);transform:matrix(1, 0, 0, 1, -189.696, 0);;animation:none"></path>
<path stroke-width="2" stroke-opacity="0" stroke="rgb(78, 109, 206)" fill="none" d="M 0 548.282 C 312 548.282 624 671.718 936 671.718 C 1248 671.718 1560 548.282 1872 548.282 C 2184 548.282 2496 671.718 2808 671.718 C 3120 671.718 3432 548.282 3744 548.282" transform="matrix(1,0,0,1,-199.6796875,0)" style="fill:none;stroke:rgb(78, 109, 206);transform:matrix(1, 0, 0, 1, -199.68, 0);;animation:none"></path>
<path stroke-width="2" stroke-opacity="0" stroke="rgb(76, 113, 207)" fill="none" d="M 0 549.514 C 312 549.514 624 670.486 936 670.486 C 1248 670.486 1560 549.514 1872 549.514 C 2184 549.514 2496 670.486 2808 670.486 C 3120 670.486 3432 549.514 3744 549.514" transform="matrix(1,0,0,1,-209.66400146484375,0)" style="fill:none;stroke:rgb(76, 113, 207);transform:matrix(1, 0, 0, 1, -209.664, 0);;animation:none"></path>
<path stroke-width="2" stroke-opacity="0" stroke="rgb(73, 116, 208)" fill="none" d="M 0 550.825 C 312 550.825 624 669.175 936 669.175 C 1248 669.175 1560 550.825 1872 550.825 C 2184 550.825 2496 669.175 2808 669.175 C 3120 669.175 3432 550.825 3744 550.825" transform="matrix(1,0,0,1,-219.64784240722656,0)" style="fill:none;stroke:rgb(73, 116, 208);transform:matrix(1, 0, 0, 1, -219.648, 0);;animation:none"></path>
<path stroke-width="2" stroke-opacity="0" stroke="rgb(71, 119, 209)" fill="none" d="M 0 552.219 C 312 552.219 624 667.781 936 667.781 C 1248 667.781 1560 552.219 1872 552.219 C 2184 552.219 2496 667.781 2808 667.781 C 3120 667.781 3432 552.219 3744 552.219" transform="matrix(1,0,0,1,-229.63168334960938,0)" style="fill:none;stroke:rgb(71, 119, 209);transform:matrix(1, 0, 0, 1, -229.632, 0);;animation:none"></path>
<path stroke-width="2" stroke-opacity="0" stroke="rgb(69, 122, 210)" fill="none" d="M 0 553.695 C 312 553.695 624 666.305 936 666.305 C 1248 666.305 1560 553.695 1872 553.695 C 2184 553.695 2496 666.305 2808 666.305 C 3120 666.305 3432 553.695 3744 553.695" transform="matrix(1,0,0,1,-239.6160125732422,0)" style="fill:none;stroke:rgb(69, 122, 210);transform:matrix(1, 0, 0, 1, -239.616, 0);;animation:none"></path>
<path stroke-width="2" stroke-opacity="0" stroke="rgb(66, 126, 211)" fill="none" d="M 0 555.257 C 312 555.257 624 664.742 936 664.742 C 1248 664.742 1560 555.257 1872 555.257 C 2184 555.257 2496 664.742 2808 664.742 C 3120 664.742 3432 555.257 3744 555.257" transform="matrix(1,0,0,1,-249.59983825683594,0)" style="fill:none;stroke:rgb(66, 126, 211);transform:matrix(1, 0, 0, 1, -249.6, 0);;animation:none"></path>
<path stroke-width="2" stroke-opacity="0" stroke="rgb(64, 129, 212)" fill="none" d="M 0 556.906 C 312 556.906 624 663.094 936 663.094 C 1248 663.094 1560 556.906 1872 556.906 C 2184 556.906 2496 663.094 2808 663.094 C 3120 663.094 3432 556.906 3744 556.906" transform="matrix(1,0,0,1,-259.58367919921875,0)" style="fill:none;stroke:rgb(64, 129, 212);transform:matrix(1, 0, 0, 1, -259.584, 0);;animation:none"></path>
<path stroke-width="2" stroke-opacity="0" stroke="rgb(62, 132, 213)" fill="none" d="M 0 558.643 C 312 558.643 624 661.357 936 661.357 C 1248 661.357 1560 558.643 1872 558.643 C 2184 558.643 2496 661.357 2808 661.357 C 3120 661.357 3432 558.643 3744 558.643" transform="matrix(1,0,0,1,-269.5679931640625,0)" style="fill:none;stroke:rgb(62, 132, 213);transform:matrix(1, 0, 0, 1, -269.568, 0);;animation:none"></path>
<path stroke-width="2" stroke-opacity="0" stroke="rgb(60, 135, 214)" fill="none" d="M 0 560.469 C 312 560.469 624 659.531 936 659.531 C 1248 659.531 1560 560.469 1872 560.469 C 2184 560.469 2496 659.531 2808 659.531 C 3120 659.531 3432 560.469 3744 560.469" transform="matrix(1,0,0,1,-279.5518493652344,0)" style="fill:none;stroke:rgb(60, 135, 214);transform:matrix(1, 0, 0, 1, -279.552, 0);;animation:none"></path>
<path stroke-width="2" stroke-opacity="0" stroke="rgb(58, 138, 215)" fill="none" d="M 0 562.386 C 312 562.386 624 657.614 936 657.614 C 1248 657.614 1560 562.386 1872 562.386 C 2184 562.386 2496 657.614 2808 657.614 C 3120 657.614 3432 562.386 3744 562.386" transform="matrix(1,0,0,1,-289.5356750488281,0)" style="fill:none;stroke:rgb(58, 138, 215);transform:matrix(1, 0, 0, 1, -289.536, 0);;animation:none"></path>
<path stroke-width="2" stroke-opacity="0" stroke="rgb(56, 140, 216)" fill="none" d="M 0 564.393 C 312 564.393 624 655.607 936 655.607 C 1248 655.607 1560 564.393 1872 564.393 C 2184 564.393 2496 655.607 2808 655.607 C 3120 655.607 3432 564.393 3744 564.393" transform="matrix(1,0,0,1,-299.5199890136719,0)" style="fill:none;stroke:rgb(56, 140, 216);transform:matrix(1, 0, 0, 1, -299.52, 0);;animation:none"></path>
<path stroke-width="2" stroke-opacity="0" stroke="rgb(54, 143, 217)" fill="none" d="M 0 566.491 C 312 566.491 624 653.509 936 653.509 C 1248 653.509 1560 566.491 1872 566.491 C 2184 566.491 2496 653.509 2808 653.509 C 3120 653.509 3432 566.491 3744 566.491" transform="matrix(1,0,0,1,-309.50384521484375,0)" style="fill:none;stroke:rgb(54, 143, 217);transform:matrix(1, 0, 0, 1, -309.504, 0);;animation:none"></path>
<path stroke-width="2" stroke-opacity="0" stroke="rgb(52, 145, 217)" fill="none" d="M 0 568.68 C 312 568.68 624 651.32 936 651.32 C 1248 651.32 1560 568.68 1872 568.68 C 2184 568.68 2496 651.32 2808 651.32 C 3120 651.32 3432 568.68 3744 568.68" transform="matrix(1,0,0,1,-319.4877014160156,0)" style="fill:none;stroke:rgb(52, 145, 217);transform:matrix(1, 0, 0, 1, -319.488, 0);;animation:none"></path>
<path stroke-width="2" stroke-opacity="0" stroke="rgb(51, 147, 218)" fill="none" d="M 0 570.959 C 312 570.959 624 649.041 936 649.041 C 1248 649.041 1560 570.959 1872 570.959 C 2184 570.959 2496 649.041 2808 649.041 C 3120 649.041 3432 570.959 3744 570.959" transform="matrix(1,0,0,1,-329.47198486328125,0)" style="fill:none;stroke:rgb(51, 147, 218);transform:matrix(1, 0, 0, 1, -329.472, 0);;animation:none"></path>
<path stroke-width="2" stroke-opacity="0" stroke="rgb(49, 149, 219)" fill="none" d="M 0 573.328 C 312 573.328 624 646.672 936 646.672 C 1248 646.672 1560 573.328 1872 573.328 C 2184 573.328 2496 646.672 2808 646.672 C 3120 646.672 3432 573.328 3744 573.328" transform="matrix(1,0,0,1,-339.4558410644531,0)" style="fill:none;stroke:rgb(49, 149, 219);transform:matrix(1, 0, 0, 1, -339.456, 0);;animation:none"></path>
<path stroke-width="2" stroke-opacity="0" stroke="rgb(48, 151, 219)" fill="none" d="M 0 575.783 C 312 575.783 624 644.217 936 644.217 C 1248 644.217 1560 575.783 1872 575.783 C 2184 575.783 2496 644.217 2808 644.217 C 3120 644.217 3432 575.783 3744 575.783" transform="matrix(1,0,0,1,-349.439697265625,0)" style="fill:none;stroke:rgb(48, 151, 219);transform:matrix(1, 0, 0, 1, -349.44, 0);;animation:none"></path>
<path stroke-width="2" stroke-opacity="0" stroke="rgb(47, 152, 220)" fill="none" d="M 0 578.323 C 312 578.323 624 641.677 936 641.677 C 1248 641.677 1560 578.323 1872 578.323 C 2184 578.323 2496 641.677 2808 641.677 C 3120 641.677 3432 578.323 3744 578.323" transform="matrix(1,0,0,1,-359.42401123046875,0)" style="fill:none;stroke:rgb(47, 152, 220);transform:matrix(1, 0, 0, 1, -359.424, 0);;animation:none"></path>
<path stroke-width="2" stroke-opacity="0" stroke="rgb(46, 153, 220)" fill="none" d="M 0 580.945 C 312 580.945 624 639.055 936 639.055 C 1248 639.055 1560 580.945 1872 580.945 C 2184 580.945 2496 639.055 2808 639.055 C 3120 639.055 3432 580.945 3744 580.945" transform="matrix(1,0,0,1,-369.4078369140625,0)" style="fill:none;stroke:rgb(46, 153, 220);transform:matrix(1, 0, 0, 1, -369.408, 0);;animation:none"></path>
<path stroke-width="2" stroke-opacity="0" stroke="rgb(45, 155, 221)" fill="none" d="M 0 583.644 C 312 583.644 624 636.356 936 636.356 C 1248 636.356 1560 583.644 1872 583.644 C 2184 583.644 2496 636.356 2808 636.356 C 3120 636.356 3432 583.644 3744 583.644" transform="matrix(1,0,0,1,-379.3916931152344,0)" style="fill:none;stroke:rgb(45, 155, 221);transform:matrix(1, 0, 0, 1, -379.392, 0);;animation:none"></path>
<path stroke-width="2" stroke-opacity="0" stroke="rgb(44, 156, 221)" fill="none" d="M 0 586.417 C 312 586.417 624 633.583 936 633.583 C 1248 633.583 1560 586.417 1872 586.417 C 2184 586.417 2496 633.583 2808 633.583 C 3120 633.583 3432 586.417 3744 586.417" transform="matrix(1,0,0,1,-389.3760070800781,0)" style="fill:none;stroke:rgb(44, 156, 221);transform:matrix(1, 0, 0, 1, -389.376, 0);;animation:none"></path>
<path stroke-width="2" stroke-opacity="0" stroke="rgb(44, 156, 221)" fill="none" d="M 0 589.256 C 312 589.256 624 630.744 936 630.744 C 1248 630.744 1560 589.256 1872 589.256 C 2184 589.256 2496 630.744 2808 630.744 C 3120 630.744 3432 589.256 3744 589.256" transform="matrix(1,0,0,1,-399.3598327636719,0)" style="fill:none;stroke:rgb(44, 156, 221);transform:matrix(1, 0, 0, 1, -399.36, 0);;animation:none"></path>
<path stroke-width="2" stroke-opacity="0" stroke="rgb(43, 157, 221)" fill="none" d="M 0 592.156 C 312 592.156 624 627.844 936 627.844 C 1248 627.844 1560 592.156 1872 592.156 C 2184 592.156 2496 627.844 2808 627.844 C 3120 627.844 3432 592.156 3744 592.156" transform="matrix(1,0,0,1,-409.34368896484375,0)" style="fill:none;stroke:rgb(43, 157, 221);transform:matrix(1, 0, 0, 1, -409.344, 0);;animation:none"></path>
<path stroke-width="2" stroke-opacity="0" stroke="rgb(43, 158, 222)" fill="none" d="M 0 595.11 C 312 595.11 624 624.89 936 624.89 C 1248 624.89 1560 595.11 1872 595.11 C 2184 595.11 2496 624.89 2808 624.89 C 3120 624.89 3432 595.11 3744 595.11" transform="matrix(1,0,0,1,-419.3280029296875,0)" style="fill:none;stroke:rgb(43, 158, 222);transform:matrix(1, 0, 0, 1, -419.328, 0);;animation:none"></path>
<path stroke-width="2" stroke-opacity="0" stroke="rgb(43, 158, 222)" fill="none" d="M 0 598.109 C 312 598.109 624 621.891 936 621.891 C 1248 621.891 1560 598.109 1872 598.109 C 2184 598.109 2496 621.891 2808 621.891 C 3120 621.891 3432 598.109 3744 598.109" transform="matrix(1,0,0,1,-429.3118591308594,0)" style="fill:none;stroke:rgb(43, 158, 222);transform:matrix(1, 0, 0, 1, -429.312, 0);;animation:none"></path>
<path stroke-width="2" stroke-opacity="0" stroke="rgb(42, 159, 222)" fill="none" d="M 0 601.146 C 312 601.146 624 618.854 936 618.854 C 1248 618.854 1560 601.146 1872 601.146 C 2184 601.146 2496 618.854 2808 618.854 C 3120 618.854 3432 601.146 3744 601.146" transform="matrix(1,0,0,1,-439.2956848144531,0)" style="fill:none;stroke:rgb(42, 159, 222);transform:matrix(1, 0, 0, 1, -439.296, 0);;animation:none"></path>
<path stroke-width="2" stroke-opacity="0" stroke="rgb(42, 159, 222)" fill="none" d="M 0 604.211 C 312 604.211 624 615.789 936 615.789 C 1248 615.789 1560 604.211 1872 604.211 C 2184 604.211 2496 615.789 2808 615.789 C 3120 615.789 3432 604.211 3744 604.211" transform="matrix(1,0,0,1,-449.2799987792969,0)" style="fill:none;stroke:rgb(42, 159, 222);transform:matrix(1, 0, 0, 1, -449.28, 0);;animation:none"></path>
<path stroke-width="2" stroke-opacity="0.022727272727272728" stroke="rgb(42, 159, 222)" fill="none" d="M 0 607.294 C 312 607.294 624 612.706 936 612.706 C 1248 612.706 1560 607.294 1872 607.294 C 2184 607.294 2496 612.706 2808 612.706 C 3120 612.706 3432 607.294 3744 607.294" transform="matrix(1,0,0,1,-459.26385498046875,0)" style="fill:none;stroke:rgb(42, 159, 222);transform:matrix(1, 0, 0, 1, -459.264, 0);;animation:none"></path>
<path stroke-width="2" stroke-opacity="0.045454545454545456" stroke="rgb(42, 159, 222)" fill="none" d="M 0 610.387 C 312 610.387 624 609.613 936 609.613 C 1248 609.613 1560 610.387 1872 610.387 C 2184 610.387 2496 609.613 2808 609.613 C 3120 609.613 3432 610.387 3744 610.387" transform="matrix(1,0,0,1,-469.2476806640625,0)" style="fill:none;stroke:rgb(42, 159, 222);transform:matrix(1, 0, 0, 1, -469.248, 0);;animation:none"></path>
<path stroke-width="2" stroke-opacity="0.06818181818181818" stroke="rgb(42, 159, 222)" fill="none" d="M 0 613.478 C 312 613.478 624 606.522 936 606.522 C 1248 606.522 1560 613.478 1872 613.478 C 2184 613.478 2496 606.522 2808 606.522 C 3120 606.522 3432 613.478 3744 613.478" transform="matrix(1,0,0,1,-479.2320251464844,0)" style="fill:none;stroke:rgb(42, 159, 222);transform:matrix(1, 0, 0, 1, -479.232, 0);;animation:none"></path>
<path stroke-width="2" stroke-opacity="0.09090909090909091" stroke="rgb(42, 159, 222)" fill="none" d="M 0 616.557 C 312 616.557 624 603.443 936 603.443 C 1248 603.443 1560 616.557 1872 616.557 C 2184 616.557 2496 603.443 2808 603.443 C 3120 603.443 3432 616.557 3744 616.557" transform="matrix(1,0,0,1,-489.2158508300781,0)" style="fill:none;stroke:rgb(42, 159, 222);transform:matrix(1, 0, 0, 1, -489.216, 0);;animation:none"></path>
<path stroke-width="2" stroke-opacity="0.11363636363636363" stroke="rgb(42, 159, 222)" fill="none" d="M 0 619.616 C 312 619.616 624 600.384 936 600.384 C 1248 600.384 1560 619.616 1872 619.616 C 2184 619.616 2496 600.384 2808 600.384 C 3120 600.384 3432 619.616 3744 619.616" transform="matrix(1,0,0,1,-499.1996765136719,0)" style="fill:none;stroke:rgb(42, 159, 222);transform:matrix(1, 0, 0, 1, -499.2, 0);;animation:none"></path>
<path stroke-width="2" stroke-opacity="0.13636363636363635" stroke="rgb(42, 160, 221)" fill="none" d="M 0 622.644 C 312 622.644 624 597.355 936 597.355 C 1248 597.355 1560 622.644 1872 622.644 C 2184 622.644 2496 597.355 2808 597.355 C 3120 597.355 3432 622.644 3744 622.644" transform="matrix(1,0,0,1,-509.18402099609375,0)" style="fill:none;stroke:rgb(42, 160, 221);transform:matrix(1, 0, 0, 1, -509.184, 0);;animation:none"></path>
<path stroke-width="2" stroke-opacity="0.1590909090909091" stroke="rgb(42, 160, 221)" fill="none" d="M 0 625.633 C 312 625.633 624 594.367 936 594.367 C 1248 594.367 1560 625.633 1872 625.633 C 2184 625.633 2496 594.367 2808 594.367 C 3120 594.367 3432 625.633 3744 625.633" transform="matrix(1,0,0,1,-519.1678466796875,0)" style="fill:none;stroke:rgb(42, 160, 221);transform:matrix(1, 0, 0, 1, -519.168, 0);;animation:none"></path>
<path stroke-width="2" stroke-opacity="0.18181818181818182" stroke="rgb(42, 161, 220)" fill="none" d="M 0 628.574 C 312 628.574 624 591.426 936 591.426 C 1248 591.426 1560 628.574 1872 628.574 C 2184 628.574 2496 591.426 2808 591.426 C 3120 591.426 3432 628.574 3744 628.574" transform="matrix(1,0,0,1,-529.1516723632812,0)" style="fill:none;stroke:rgb(42, 161, 220);transform:matrix(1, 0, 0, 1, -529.152, 0);;animation:none"></path>
<path stroke-width="2" stroke-opacity="0.20454545454545456" stroke="rgb(42, 161, 220)" fill="none" d="M 0 631.46 C 312 631.46 624 588.54 936 588.54 C 1248 588.54 1560 631.46 1872 631.46 C 2184 631.46 2496 588.54 2808 588.54 C 3120 588.54 3432 631.46 3744 631.46" transform="matrix(1,0,0,1,-539.135986328125,0)" style="fill:none;stroke:rgb(42, 161, 220);transform:matrix(1, 0, 0, 1, -539.136, 0);;animation:none"></path>
<path stroke-width="2" stroke-opacity="0.22727272727272727" stroke="rgb(42, 162, 219)" fill="none" d="M 0 634.283 C 312 634.283 624 585.717 936 585.717 C 1248 585.717 1560 634.283 1872 634.283 C 2184 634.283 2496 585.717 2808 585.717 C 3120 585.717 3432 634.283 3744 634.283" transform="matrix(1,0,0,1,-549.119873046875,0)" style="fill:none;stroke:rgb(42, 162, 219);transform:matrix(1, 0, 0, 1, -549.12, 0);;animation:none"></path>
<path stroke-width="2" stroke-opacity="0.25" stroke="rgb(41, 163, 218)" fill="none" d="M 0 637.037 C 312 637.037 624 582.963 936 582.963 C 1248 582.963 1560 637.037 1872 637.037 C 2184 637.037 2496 582.963 2808 582.963 C 3120 582.963 3432 637.037 3744 637.037" transform="matrix(1,0,0,1,-559.1036987304688,0)" style="fill:none;stroke:rgb(41, 163, 218);transform:matrix(1, 0, 0, 1, -559.104, 0);;animation:none"></path>
<path stroke-width="2" stroke-opacity="0.2727272727272727" stroke="rgb(41, 164, 217)" fill="none" d="M 0 639.718 C 312 639.718 624 580.282 936 580.282 C 1248 580.282 1560 639.718 1872 639.718 C 2184 639.718 2496 580.282 2808 580.282 C 3120 580.282 3432 639.718 3744 639.718" transform="matrix(1,0,0,1,-569.0879516601562,0)" style="fill:none;stroke:rgb(41, 164, 217);transform:matrix(1, 0, 0, 1, -569.088, 0);;animation:none"></path>
<path stroke-width="2" stroke-opacity="0.29545454545454547" stroke="rgb(41, 166, 215)" fill="none" d="M 0 642.319 C 312 642.319 624 577.681 936 577.681 C 1248 577.681 1560 642.319 1872 642.319 C 2184 642.319 2496 577.681 2808 577.681 C 3120 577.681 3432 642.319 3744 642.319" transform="matrix(1,0,0,1,-579.0718994140625,0)" style="fill:none;stroke:rgb(41, 166, 215);transform:matrix(1, 0, 0, 1, -579.072, 0);;animation:none"></path>
<path stroke-width="2" stroke-opacity="0.3181818181818182" stroke="rgb(41, 167, 214)" fill="none" d="M 0 644.839 C 312 644.839 624 575.161 936 575.161 C 1248 575.161 1560 644.839 1872 644.839 C 2184 644.839 2496 575.161 2808 575.161 C 3120 575.161 3432 644.839 3744 644.839" transform="matrix(1,0,0,1,-589.0557250976562,0)" style="fill:none;stroke:rgb(41, 167, 214);transform:matrix(1, 0, 0, 1, -589.056, 0);;animation:none"></path>
<path stroke-width="2" stroke-opacity="0.3409090909090909" stroke="rgb(41, 168, 213)" fill="none" d="M 0 647.273 C 312 647.273 624 572.727 936 572.727 C 1248 572.727 1560 647.273 1872 647.273 C 2184 647.273 2496 572.727 2808 572.727 C 3120 572.727 3432 647.273 3744 647.273" transform="matrix(1,0,0,1,-599.0399780273438,0)" style="fill:none;stroke:rgb(41, 168, 213);transform:matrix(1, 0, 0, 1, -599.04, 0);;animation:none"></path>
<path stroke-width="2" stroke-opacity="0.36363636363636365" stroke="rgb(41, 170, 211)" fill="none" d="M 0 649.619 C 312 649.619 624 570.381 936 570.381 C 1248 570.381 1560 649.619 1872 649.619 C 2184 649.619 2496 570.381 2808 570.381 C 3120 570.381 3432 649.619 3744 649.619" transform="matrix(1,0,0,1,-609.0238037109375,0)" style="fill:none;stroke:rgb(41, 170, 211);transform:matrix(1, 0, 0, 1, -609.024, 0);;animation:none"></path>
<path stroke-width="2" stroke-opacity="0.38636363636363635" stroke="rgb(40, 172, 209)" fill="none" d="M 0 651.876 C 312 651.876 624 568.125 936 568.125 C 1248 568.125 1560 651.876 1872 651.876 C 2184 651.876 2496 568.125 2808 568.125 C 3120 568.125 3432 651.876 3744 651.876" transform="matrix(1,0,0,1,-619.0076904296875,0)" style="fill:none;stroke:rgb(40, 172, 209);transform:matrix(1, 0, 0, 1, -619.008, 0);;animation:none"></path>
<path stroke-width="2" stroke-opacity="0.4090909090909091" stroke="rgb(40, 174, 207)" fill="none" d="M 0 654.042 C 312 654.042 624 565.958 936 565.958 C 1248 565.958 1560 654.042 1872 654.042 C 2184 654.042 2496 565.958 2808 565.958 C 3120 565.958 3432 654.042 3744 654.042" transform="matrix(1,0,0,1,-628.9920043945312,0)" style="fill:none;stroke:rgb(40, 174, 207);transform:matrix(1, 0, 0, 1, -628.992, 0);;animation:none"></path>
<path stroke-width="2" stroke-opacity="0.4318181818181818" stroke="rgb(40, 176, 205)" fill="none" d="M 0 656.117 C 312 656.117 624 563.883 936 563.883 C 1248 563.883 1560 656.117 1872 656.117 C 2184 656.117 2496 563.883 2808 563.883 C 3120 563.883 3432 656.117 3744 656.117" transform="matrix(1,0,0,1,-638.975830078125,0)" style="fill:none;stroke:rgb(40, 176, 205);transform:matrix(1, 0, 0, 1, -638.976, 0);;animation:none"></path>
<path stroke-width="2" stroke-opacity="0.45454545454545453" stroke="rgb(39, 179, 202)" fill="none" d="M 0 658.102 C 312 658.102 624 561.898 936 561.898 C 1248 561.898 1560 658.102 1872 658.102 C 2184 658.102 2496 561.898 2808 561.898 C 3120 561.898 3432 658.102 3744 658.102" transform="matrix(1,0,0,1,-648.959716796875,0)" style="fill:none;stroke:rgb(39, 179, 202);transform:matrix(1, 0, 0, 1, -648.96, 0);;animation:none"></path>
<path stroke-width="2" stroke-opacity="0.4772727272727273" stroke="rgb(39, 181, 200)" fill="none" d="M 0 659.996 C 312 659.996 624 560.004 936 560.004 C 1248 560.004 1560 659.996 1872 659.996 C 2184 659.996 2496 560.004 2808 560.004 C 3120 560.004 3432 659.996 3744 659.996" transform="matrix(1,0,0,1,-658.9439697265625,0)" style="fill:none;stroke:rgb(39, 181, 200);transform:matrix(1, 0, 0, 1, -658.944, 0);;animation:none"></path>
<path stroke-width="2" stroke-opacity="0.5" stroke="rgb(39, 184, 197)" fill="none" d="M 0 661.799 C 312 661.799 624 558.201 936 558.201 C 1248 558.201 1560 661.799 1872 661.799 C 2184 661.799 2496 558.201 2808 558.201 C 3120 558.201 3432 661.799 3744 661.799" transform="matrix(1,0,0,1,-668.9278564453125,0)" style="fill:none;stroke:rgb(39, 184, 197);transform:matrix(1, 0, 0, 1, -668.928, 0);;animation:none"></path>
<path stroke-width="2" stroke-opacity="0.5227272727272727" stroke="rgb(38, 187, 194)" fill="none" d="M 0 663.514 C 312 663.514 624 556.486 936 556.486 C 1248 556.486 1560 663.514 1872 663.514 C 2184 663.514 2496 556.486 2808 556.486 C 3120 556.486 3432 663.514 3744 663.514" transform="matrix(1,0,0,1,-678.9116821289062,0)" style="fill:none;stroke:rgb(38, 187, 194);transform:matrix(1, 0, 0, 1, -678.912, 0);;animation:none"></path>
<path stroke-width="2" stroke-opacity="0.5454545454545454" stroke="rgb(38, 190, 191)" fill="none" d="M 0 665.141 C 312 665.141 624 554.859 936 554.859 C 1248 554.859 1560 665.141 1872 665.141 C 2184 665.141 2496 554.859 2808 554.859 C 3120 554.859 3432 665.141 3744 665.141" transform="matrix(1,0,0,1,-688.89599609375,0)" style="fill:none;stroke:rgb(38, 190, 191);transform:matrix(1, 0, 0, 1, -688.896, 0);;animation:none"></path>
<path stroke-width="2" stroke-opacity="0.5681818181818182" stroke="rgb(38, 193, 188)" fill="none" d="M 0 666.682 C 312 666.682 624 553.318 936 553.318 C 1248 553.318 1560 666.682 1872 666.682 C 2184 666.682 2496 553.318 2808 553.318 C 3120 553.318 3432 666.682 3744 666.682" transform="matrix(1,0,0,1,-698.8798217773438,0)" style="fill:none;stroke:rgb(38, 193, 188);transform:matrix(1, 0, 0, 1, -698.88, 0);;animation:none"></path>
<path stroke-width="2" stroke-opacity="0.5909090909090909" stroke="rgb(37, 196, 185)" fill="none" d="M 0 668.137 C 312 668.137 624 551.863 936 551.863 C 1248 551.863 1560 668.137 1872 668.137 C 2184 668.137 2496 551.863 2808 551.863 C 3120 551.863 3432 668.137 3744 668.137" transform="matrix(1,0,0,1,-708.8636474609375,0)" style="fill:none;stroke:rgb(37, 196, 185);transform:matrix(1, 0, 0, 1, -708.864, 0);;animation:none"></path>
<path stroke-width="2" stroke-opacity="0.6136363636363636" stroke="rgb(37, 198, 183)" fill="none" d="M 0 669.51 C 312 669.51 624 550.49 936 550.49 C 1248 550.49 1560 669.51 1872 669.51 C 2184 669.51 2496 550.49 2808 550.49 C 3120 550.49 3432 669.51 3744 669.51" transform="matrix(1,0,0,1,-718.8480224609375,0)" style="fill:none;stroke:rgb(37, 198, 183);transform:matrix(1, 0, 0, 1, -718.848, 0);;animation:none"></path>
<path stroke-width="2" stroke-opacity="0.6363636363636364" stroke="rgb(36, 201, 180)" fill="none" d="M 0 670.802 C 312 670.802 624 549.199 936 549.199 C 1248 549.199 1560 670.802 1872 670.802 C 2184 670.802 2496 549.199 2808 549.199 C 3120 549.199 3432 670.802 3744 670.802" transform="matrix(1,0,0,1,-728.8318481445312,0)" style="fill:none;stroke:rgb(36, 201, 180);transform:matrix(1, 0, 0, 1, -728.832, 0);;animation:none"></path>
<path stroke-width="2" stroke-opacity="0.6590909090909091" stroke="rgb(36, 204, 177)" fill="none" d="M 0 672.014 C 312 672.014 624 547.986 936 547.986 C 1248 547.986 1560 672.014 1872 672.014 C 2184 672.014 2496 547.986 2808 547.986 C 3120 547.986 3432 672.014 3744 672.014" transform="matrix(1,0,0,1,-738.815673828125,0)" style="fill:none;stroke:rgb(36, 204, 177);transform:matrix(1, 0, 0, 1, -738.816, 0);;animation:none"></path>
<g></g></g><!-- [ldio] generated by https://loading.io --></svg>